{"title":"The Hangover 2009 MPEG-4 (IPONE)(NL SUBS) 2Lions-Team","uid":5156488,"size":1169335041,"categoryP":"video","categoryS":"handheld","magnet":"?xt=urn:btih:eb07eb6ac7c83bbe1a721250bac53c0ab27cb887&amp;dn=The+Hangover+2009+MPEG-4+%28IPONE%29%28NL+SUBS%29+2Lions-Team&amp;tr=udp%3A%2F%2Ftracker.openbittorrent.com%3A80&amp;tr=udp%3A%2F%2Fopen.demonii.com%3A1337&amp;tr=udp%3A%2F%2Ftracker.coppersurfer.tk%3A6969&amp;tr=udp%3A%2F%2Fexodus.desync.com%3A6969","seeders":0,"leechers":1,"uploader":"Pioen","files":-1,"time":1257881119,"description":"The Hangover 2009  MPEG-4 (IPONE)(NL SUBS) 2Lions-Team\n\n\n\nVerenigde Staten / Duitsland\nKomedie\n99 minuten / 108 minuten (unrated version)\n\ngeregisseerd door Todd Phillips\nmet Bradley Cooper, Ed Helms en Zach Galifianakis\n\nNederlands:\nTwee dagen voor zijn huwelijk, gaat Doug met drie vrienden naar Las Vegas, \nom daar een knallend vrijgezellenfeest te houden. Ze feesten er op los, \nmaar als ze de volgende morgen wakker worden weten ze niks meer van de vorige avond. \nOm ÃƒÂ©ÃƒÂ©n of andere reden vinden ze een tijger in de douche en zitten ze opgescheept met een zes maanden oude baby. \nDoug is echter nergens te bekennen. \nEen race tegen de klok volgt om Doug toch nog op tijd voor het altaar te laten verschijnen.\n\nEngels:\nAngelenos Doug Billings and Tracy Garner are about to get married. \nTwo days before the wedding, the four men in the wedding party - Doug, \nDoug's two best buddies Phil Wenneck and Stu Price, and Tracy's brother \nAlan Garner - hop into Tracy's father's beloved Mercedes convertible for a 24-hour stag party to Las Vegas. \nPhil, a married high school teacher, has the same maturity level as his students when he's with his pals. \nStu, a dentist, is worried about everything, especially what his controlling girlfriend Melissa thinks. \nBecause she disapproves of traditional male bonding rituals, Stu has to lie to her about the stag, \nhe telling her that they are going on a wine tasting tour in the Napa Valley. \nRegardless, he intends on eventually marrying her, against the advice and wishes of his friends. \nAnd Alan seems to be unaware of what are considered the social graces of the western world. \nThe morning after their arrival in Las Vegas, they awaken in their hotel suite each with the worst hangover. \nNone remembers what happened in the past twelve or so hours. The suite is in shambles. \nAnd certain things are in the suite that shouldn't be, \nand certain things that should be in the suite are missing. \nProbably the most important in the latter category is Doug. \nAs Phil, Stu and Alan try to find Doug using only what little pieces of information they have at hand, \nthey go on a journey of discovery of how certain things got into the suite and what happened to the missing items. \nHowever they are on a race for time as if they can't find Doug in the next few hours, \nthey are going to have to explain to Tracy why they are not yet back in Los Angeles. \nAnd even worse, they may not find Doug at all before the wedding.\n\n\nGenre: Komedie\nSource: The.Hangover.DVDR-DEViSE\nAudio: Engelse Dolby Digital 5.1\nSubs &amp; Nederlandse custom custom by ~ Just4fun-Team vertaalcrew ~ (hardcoded)\n\nFormat                           : MPEG-4\nFormat profile                   : Base Media\nCodec ID                         : isom\nFile size                        : 1.09 GiB\nDuration                         : 1h 35mn\nOverall bit rate                 : 1 630 Kbps\n\nVideo\nID                               : 1\nFormat                           : MPEG-4 Visual\nFormat profile                   : Simple@L1\nFormat settings, BVOP            : No\nFormat settings, QPel            : No\nFormat settings, GMC             : No warppoints\nFormat settings, Matrix          : Default (H.263)\nCodec ID                         : 20\nDuration                         : 1h 35mn\nBit rate mode                    : Variable\nBit rate                         : 1 497 Kbps\nWidth                            : 720 pixels\nHeight                           : 406 pixels\nDisplay aspect ratio             : 16/9\nFrame rate mode                  : Constant\nFrame rate                       : 25.000 fps\nResolution                       : 24 bits\nColorimetry                      : 4:2:0\nScan type                        : Progressive\nBits/(Pixel*Frame)               : 0.205\nStream size                      : 1.00 GiB (92%)\nWriting library                  : Lavc51.40.4\n\n\nAudio\nID                               : 2\nFormat                           : AAC\nFormat/Info                      : Advanced Audio Codec\nFormat version                   : Version 4\nFormat profile                   : LC\nFormat settings, SBR             : No\nCodec ID                         : 40\nDuration                         : 1h 35mn\nBit rate mode                    : Variable\nBit rate                         : 128 Kbps\nChannel(s)                       : 2 channels\nChannel positions                : L R\nSampling rate                    : 48.0 KHz\nResolution                       : 16 bits\nStream size                      : 87.4 MiB (8%)\n\n &lt;a href=&quot;\nhttp://www.moviemeter.nl/film/54691&quot; rel=&quot;nofollow&quot; target=&quot;_NEW&quot;&gt;\nhttp://www.moviemeter.nl/film/54691&lt;/a&gt; &lt;a href=&quot;\nhttp://www.imdb.com/title/tt1119646&quot; rel=&quot;nofollow&quot; target=&quot;_NEW&quot;&gt;\nhttp://www.imdb.com/title/tt1119646&lt;/a&gt;\n\n***************************************** \n\nBrought to you by \n2Lions Team \n\n\n\nmeer zien?? \nKom dan eens kijken op ons forum \n         &lt;a href=&quot;\nhttp://www.2lions.ons-forum.nl&quot; rel=&quot;nofollow&quot; target=&quot;_NEW&quot;&gt;\nhttp://www.2lions.ons-forum.nl&lt;/a&gt; \n2Lions-Team for all your Dutch MOVIES and more \n\n*****************************************\n\nDON T HIT AND RUN Niet gelijk afhaken als de film binnen is blijf seeden.","torrent":{"xt":"urn:btih:eb07eb6ac7c83bbe1a721250bac53c0ab27cb887","amp;dn":"The+Hangover+2009+MPEG-4+%28IPONE%29%28NL+SUBS%29+2Lions-Team","amp;tr":["udp%3A%2F%2Ftracker.openbittorrent.com%3A80","udp%3A%2F%2Fopen.demonii.com%3A1337","udp%3A%2F%2Ftracker.coppersurfer.tk%3A6969","udp%3A%2F%2Fexodus.desync.com%3A6969"],"infoHash":"eb07eb6ac7c83bbe1a721250bac53c0ab27cb887","infoHashBuffer":{"type":"Buffer","data":[235,7,235,106,199,200,59,190,26,114,18,80,186,197,60,10,178,124,184,135]},"announce":[],"urlList":[]}}